<svg xmlns="http://www.w3.org/2000/svg" width="30" height="31" viewBox="0 0 30 31" fill="none">
    <g clip-path="url(#clip0_19432_2)">
        <path fill-rule="evenodd" clip-rule="evenodd" d="M15.0279 2.84473C16.439 2.84473 17.8501 2.90771 19.2611 3.03368C22.691 3.33986 25.4717 5.94234 26.0041 9.34447L26.8614 14.8247C26.9145 14.8397 26.9676 14.8547 27.0207 14.8698C28.2291 15.2141 29.0625 16.3182 29.0625 17.5747V19.7197C29.0625 21.273 27.8033 22.5322 26.25 22.5322H24.8428L25.7658 25.9757C25.8998 26.4758 25.6031 26.9899 25.1029 27.1239C24.6028 27.2579 24.0887 26.9611 23.9547 26.461L22.9842 22.8388C22.9566 22.7361 22.9473 22.6328 22.9541 22.5323H7.04587C7.05271 22.6328 7.04336 22.7361 7.01584 22.8388L6.04527 26.461C5.91126 26.9611 5.3972 27.2579 4.89707 27.1239C4.39695 26.9899 4.10015 26.4758 4.23416 25.9757L5.15625 22.5322H3.75C2.1967 22.5322 0.9375 21.273 0.9375 19.7197V17.5746C0.9375 16.3181 1.77089 15.2141 2.97925 14.8698L3.13781 14.825L3.99528 9.34863C4.52737 5.94833 7.30546 3.34657 10.7333 3.03828C12.1681 2.90925 13.5996 2.84473 15.0279 2.84473Z" fill="#442C2E"/>
    </g>
    <defs>
        <clipPath id="clip0_19432_2">
            <rect width="30" height="30" fill="white" transform="translate(0 0.969727)"/>
        </clipPath>
    </defs>
</svg>